<svg width="24" height="24" viewBox="0 0 24 24" fill="none" xmlns="http://www.w3.org/2000/svg">
    <path d="M6 9C7.65685 9 9 7.65685 9 6C9 4.34315 7.65685 3 6 3C4.34315 3 3 4.34315 3 6C3 7.65685 4.34315 9 6 9Z"
          stroke="black" stroke-width="2"/>
    <path d="M17 9C18.6569 9 20 7.65685 20 6C20 4.34315 18.6569 3 17 3C15.3431 3 14 4.34315 14 6C14 7.65685 15.3431 9 17 9Z"
          stroke="black" stroke-width="2"/>
    <path d="M3 12V18H8.66667V12M14.3333 12V18H20V12" stroke="black" stroke-width="2"/>
    <path d="M5 10V15M18 10V15M5 20H18" stroke="#E0CE20" stroke-width="2"/>
</svg>
