<svg width="180" height="180" viewBox="0 0 180 180" fill="none" xmlns="http://www.w3.org/2000/svg">
<rect width="180" height="180" fill="white"/>
<path d="M26.9814 48.3633L82.8477 79.5713L83.0039 79.6582L83.0693 79.8262L85.7666 86.7607L85.8008 86.8486V166.933L85.6172 167.082L81.3789 170.55L81.1172 170.764L80.8213 170.601L24.9551 139.778L24.8193 139.703L22 134.064V52.4316L22.1641 52.2822L26.4014 48.4297L26.668 48.1875L26.9814 48.3633ZM32.4023 62.6562L30.8613 131.236L30.8545 131.535L31.1143 131.683L75.8066 157.11L76.5537 157.536V88.1982L76.3105 88.0527L33.1592 62.2393L32.4219 61.7979L32.4023 62.6562Z" fill="black"/>
<path d="M93.2559 9.06738L142.572 37.5781L142.822 37.7227V43.6875L142.579 43.833L93.2637 73.5L93.1445 73.5713H87.4746L87.3555 73.5L37.6553 43.834L37.4111 43.6885V37.7207L37.6621 37.5771L87.3633 9.06641L87.4785 9H93.1406L93.2559 9.06738ZM89.668 17.5459L51.5254 40.2773L50.7988 40.7109L51.5283 41.1387L89.6709 63.4844L89.9229 63.6318L90.1748 63.4854L128.703 41.1396L129.442 40.7109L128.706 40.2764L90.1777 17.5449L89.9229 17.3945L89.668 17.5459Z" fill="black"/>
<path d="M153.831 48.0439L158.07 51.8965L158.233 52.0459V133.294L155.098 139.563L155.031 139.699L154.899 139.774L100.189 170.981L99.926 171.132L99.6702 170.968L94.2766 167.501L94.0471 167.353V86.4268L94.1096 86.3135L97.9631 79.3789L98.0315 79.2559L98.1536 79.1865L153.248 47.9795L153.564 47.8008L153.831 48.0439ZM148.251 61.459L135.153 68.3936L134.886 68.5342V102.848L103.53 122.35L103.293 122.497V158.708L104.046 158.267L148.739 132.067L148.986 131.923V61.0703L148.251 61.459Z" fill="black"/>
</svg>
